<svg xmlns="http://www.w3.org/2000/svg" viewBox="0 0 620 160" width="100%" height="100%">
  <defs>
    <linearGradient id="cOuterGrad" x1="0%" y1="0%" x2="100%" y2="100%">
      <stop offset="0%" stop-color="#1E40AF" />
      <stop offset="40%" stop-color="#2563EB" />
      <stop offset="100%" stop-color="#1D4ED8" />
    </linearGradient>
    
    <linearGradient id="waveGrad" x1="0%" y1="0%" x2="100%" y2="0%">
      <stop offset="0%" stop-color="#0284C7" />
      <stop offset="50%" stop-color="#0EA5E9" />
      <stop offset="100%" stop-color="#14B8A6" />
    </linearGradient>
  </defs>

  <g transform="translate(15, 10)">
    <path d="M 105,22 
             A 53,53 0 0,0 52,75 
             A 53,53 0 0,0 105,128 
             L 112,128 
             A 41,41 0 0,1 71,75 
             A 41,41 0 0,1 112,22 Z" 
          fill="url(#cOuterGrad)" />

    <path d="M 64,52 C 80,44 90,60 112,48" fill="none" stroke="url(#waveGrad)" stroke-width="9" stroke-linecap="round" />
    <circle cx="112" cy="48" r="5" fill="#FFF" stroke="#0EA5E9" stroke-width="3" />

    <path d="M 59,75 C 76,67 88,83 116,72" fill="none" stroke="url(#waveGrad)" stroke-width="10" stroke-linecap="round" />
    <circle cx="116" cy="72" r="5" fill="#FFF" stroke="#0EA5E9" stroke-width="3" />

    <path d="M 64,98 C 80,90 90,106 112,94" fill="none" stroke="url(#waveGrad)" stroke-width="9" stroke-linecap="round" />
    <circle cx="112" cy="94" r="5" fill="#FFF" stroke="#14B8A6" stroke-width="3" />
  </g>

  <g transform="translate(155, 90)">
    <text font-family="system-ui, -apple-system, BlinkMacSystemFont, 'Segoe UI', Roboto, sans-serif" font-weight="700" font-size="58" fill="#000000" letter-spacing="-1.5">
      coveflow
    </text>
  </g>
</svg>
